# Blender 5.1.2
# www.blender.org
mtllib NL-M3.mtl
o Cube
v -0.325000 0.003349 0.295000
v -0.325000 2.048349 0.295000
v -0.325000 0.003349 -0.295000
v -0.325000 2.048349 -0.295000
v 0.325000 0.003349 0.295000
v 0.325000 2.048349 0.295000
v 0.325000 0.003349 -0.295000
v 0.325000 2.048349 -0.295000
vn -1.0000 -0.0000 -0.0000
vn -0.0000 -0.0000 -1.0000
vn 1.0000 -0.0000 -0.0000
vn -0.0000 -0.0000 1.0000
vn -0.0000 -1.0000 -0.0000
vn -0.0000 1.0000 -0.0000
vt 0.015593 0.505933
vt 0.015989 0.485507
vt 0.256347 0.487734
vt 0.255951 0.508160
vt 0.496706 0.489961
vt 0.496310 0.510386
vt 0.963406 0.009947
vt 0.979350 0.990503
vt 0.028807 0.989926
vt 0.012864 0.009370
vt 0.736668 0.512613
vt 0.737064 0.492187
vt 0.977423 0.494414
vt 0.977027 0.514840
vt 0.495914 0.530812
vt 0.736272 0.533039
vt 0.497101 0.469535
vt 0.737460 0.471761
s 0
usemtl NL-M3_Face
f 1/1/1 2/2/1 4/3/1 3/4/1
f 3/4/2 4/3/2 8/5/2 7/6/2
f 7/7/3 8/8/3 6/9/3 5/10/3
f 5/11/4 6/12/4 2/13/4 1/14/4
f 3/15/5 7/6/5 5/11/5 1/16/5
f 8/5/6 4/17/6 2/18/6 6/12/6
o Plane
v 0.340435 2.061511 0.295000
v 0.340435 0.016510 0.295000
v 0.340435 2.061511 -0.295000
v 0.340435 0.016510 -0.295000
vn 1.0000 -0.0000 -0.0000
vt -0.020308 1.000702
vt -0.020255 -0.001323
vt 1.020308 -0.000701
vt 1.020255 1.001323
s 0
usemtl Material.001
f 9/19/7 10/20/7 12/21/7 11/22/7
